<mxfile host="app.diagrams.net" agent="Mozilla/5.0 (Macintosh; Intel Mac OS X 10_15_7) AppleWebKit/537.36 (KHTML, like Gecko) Chrome/130.0.0.0 Safari/537.36" version="24.8.4">
  <diagram id="C5RBs43oDa-KdzZeNtuy" name="Page-1">
    <mxGraphModel dx="621" dy="410" grid="1" gridSize="11" guides="1" tooltips="1" connect="1" arrows="1" fold="1" page="1" pageScale="1" pageWidth="3000" pageHeight="3000" math="0" shadow="0">
      <root>
        <mxCell id="WIyWlLk6GJQsqaUBKTNV-0" />
        <mxCell id="WIyWlLk6GJQsqaUBKTNV-1" parent="WIyWlLk6GJQsqaUBKTNV-0" />
        <mxCell id="Td7zW-o2DTwXKr2sYSDe-17" style="edgeStyle=orthogonalEdgeStyle;rounded=0;orthogonalLoop=1;jettySize=auto;html=1;entryX=0.481;entryY=-0.012;entryDx=0;entryDy=0;entryPerimeter=0;exitX=0.582;exitY=0.755;exitDx=0;exitDy=0;exitPerimeter=0;" edge="1" parent="WIyWlLk6GJQsqaUBKTNV-1" source="Td7zW-o2DTwXKr2sYSDe-0" target="Td7zW-o2DTwXKr2sYSDe-10">
          <mxGeometry relative="1" as="geometry">
            <mxPoint x="1045" y="286" as="sourcePoint" />
            <mxPoint x="1281.9500000000003" y="385" as="targetPoint" />
            <Array as="points">
              <mxPoint x="1045" y="352" />
              <mxPoint x="1224" y="352" />
              <mxPoint x="1224" y="431" />
              <mxPoint x="1224" y="431" />
            </Array>
          </mxGeometry>
        </mxCell>
        <mxCell id="Td7zW-o2DTwXKr2sYSDe-0" value="Dockerfile.dev" style="shape=document;whiteSpace=wrap;html=1;boundedLbl=1;" vertex="1" parent="WIyWlLk6GJQsqaUBKTNV-1">
          <mxGeometry x="968" y="220" width="132" height="77" as="geometry" />
        </mxCell>
        <mxCell id="Td7zW-o2DTwXKr2sYSDe-1" value="skaffold.yaml" style="shape=document;whiteSpace=wrap;html=1;boundedLbl=1;" vertex="1" parent="WIyWlLk6GJQsqaUBKTNV-1">
          <mxGeometry x="1188" y="220" width="132" height="88" as="geometry" />
        </mxCell>
        <mxCell id="Td7zW-o2DTwXKr2sYSDe-2" value="k8s folder" style="shape=document;whiteSpace=wrap;html=1;boundedLbl=1;" vertex="1" parent="WIyWlLk6GJQsqaUBKTNV-1">
          <mxGeometry x="1407" y="220" width="120" height="80" as="geometry" />
        </mxCell>
        <mxCell id="Td7zW-o2DTwXKr2sYSDe-4" value="Development environment: k3s cluster" style="text;strokeColor=none;fillColor=none;html=1;fontSize=32;fontStyle=1;verticalAlign=middle;align=center;" vertex="1" parent="WIyWlLk6GJQsqaUBKTNV-1">
          <mxGeometry x="1100" y="99" width="341" height="44" as="geometry" />
        </mxCell>
        <mxCell id="Td7zW-o2DTwXKr2sYSDe-5" style="edgeStyle=orthogonalEdgeStyle;rounded=0;orthogonalLoop=1;jettySize=auto;html=1;endArrow=none;endFill=0;" edge="1" parent="WIyWlLk6GJQsqaUBKTNV-1" source="Td7zW-o2DTwXKr2sYSDe-0">
          <mxGeometry relative="1" as="geometry">
            <mxPoint x="1188" y="258" as="targetPoint" />
          </mxGeometry>
        </mxCell>
        <mxCell id="Td7zW-o2DTwXKr2sYSDe-6" style="edgeStyle=orthogonalEdgeStyle;rounded=0;orthogonalLoop=1;jettySize=auto;html=1;endArrow=none;endFill=0;" edge="1" parent="WIyWlLk6GJQsqaUBKTNV-1">
          <mxGeometry relative="1" as="geometry">
            <mxPoint x="1320" y="259.78" as="sourcePoint" />
            <mxPoint x="1408" y="259.78" as="targetPoint" />
          </mxGeometry>
        </mxCell>
        <mxCell id="Td7zW-o2DTwXKr2sYSDe-7" value="" style="shape=curlyBracket;whiteSpace=wrap;html=1;rounded=1;flipH=1;labelPosition=right;verticalLabelPosition=middle;align=left;verticalAlign=middle;" vertex="1" parent="WIyWlLk6GJQsqaUBKTNV-1">
          <mxGeometry x="1551" y="213" width="22" height="87" as="geometry" />
        </mxCell>
        <mxCell id="Td7zW-o2DTwXKr2sYSDe-8" value="&lt;ul&gt;&lt;li&gt;Deployments&lt;/li&gt;&lt;li&gt;&lt;span style=&quot;background-color: initial;&quot;&gt;Services&lt;/span&gt;&lt;/li&gt;&lt;li&gt;&lt;span style=&quot;background-color: initial;&quot;&gt;ConfigMap&lt;/span&gt;&lt;/li&gt;&lt;li&gt;&lt;span style=&quot;background-color: initial;&quot;&gt;Secrets&lt;/span&gt;&lt;/li&gt;&lt;li&gt;&lt;span style=&quot;background-color: initial;&quot;&gt;PVCs&lt;/span&gt;&lt;/li&gt;&lt;/ul&gt;" style="text;strokeColor=none;fillColor=none;html=1;whiteSpace=wrap;verticalAlign=middle;overflow=hidden;" vertex="1" parent="WIyWlLk6GJQsqaUBKTNV-1">
          <mxGeometry x="1573" y="205.25" width="132" height="102.5" as="geometry" />
        </mxCell>
        <mxCell id="Td7zW-o2DTwXKr2sYSDe-9" value="Frontend Image" style="rounded=1;whiteSpace=wrap;html=1;" vertex="1" parent="WIyWlLk6GJQsqaUBKTNV-1">
          <mxGeometry x="980" y="429" width="120" height="60" as="geometry" />
        </mxCell>
        <mxCell id="Td7zW-o2DTwXKr2sYSDe-10" value="Backend Image" style="rounded=1;whiteSpace=wrap;html=1;" vertex="1" parent="WIyWlLk6GJQsqaUBKTNV-1">
          <mxGeometry x="1166" y="429" width="120" height="60" as="geometry" />
        </mxCell>
        <mxCell id="Td7zW-o2DTwXKr2sYSDe-11" value="mysql:latest" style="rounded=1;whiteSpace=wrap;html=1;" vertex="1" parent="WIyWlLk6GJQsqaUBKTNV-1">
          <mxGeometry x="1424.5" y="385" width="120" height="60" as="geometry" />
        </mxCell>
        <mxCell id="Td7zW-o2DTwXKr2sYSDe-13" value="" style="shape=curlyBracket;whiteSpace=wrap;html=1;rounded=1;flipH=1;labelPosition=right;verticalLabelPosition=middle;align=left;verticalAlign=middle;size=0.5;" vertex="1" parent="WIyWlLk6GJQsqaUBKTNV-1">
          <mxGeometry x="1562" y="371.5" width="22" height="87" as="geometry" />
        </mxCell>
        <mxCell id="Td7zW-o2DTwXKr2sYSDe-15" value="gets pulled from Docker Hub&amp;nbsp;" style="text;html=1;align=center;verticalAlign=middle;whiteSpace=wrap;rounded=0;" vertex="1" parent="WIyWlLk6GJQsqaUBKTNV-1">
          <mxGeometry x="1595" y="385" width="88" height="62" as="geometry" />
        </mxCell>
        <mxCell id="Td7zW-o2DTwXKr2sYSDe-16" style="edgeStyle=orthogonalEdgeStyle;rounded=0;orthogonalLoop=1;jettySize=auto;html=1;exitX=0.58;exitY=0.785;exitDx=0;exitDy=0;exitPerimeter=0;" edge="1" parent="WIyWlLk6GJQsqaUBKTNV-1" source="Td7zW-o2DTwXKr2sYSDe-0">
          <mxGeometry relative="1" as="geometry">
            <mxPoint x="1045" y="275" as="sourcePoint" />
            <mxPoint x="1045" y="429" as="targetPoint" />
            <Array as="points">
              <mxPoint x="1045" y="363" />
              <mxPoint x="1045" y="363" />
              <mxPoint x="1045" y="429" />
            </Array>
          </mxGeometry>
        </mxCell>
      </root>
    </mxGraphModel>
  </diagram>
</mxfile>
